<svg width="316" height="316" viewBox="0 0 316 316" fill="none" xmlns="http://www.w3.org/2000/svg">
<path d="M106.785 21.9563C107.713 21.3957 108.7 20.971 109.719 20.6816L110.323 17.7775L115.229 17.6916L115.935 20.5722C116.964 20.8257 117.965 21.2156 118.912 21.7433L121.391 20.1178L124.921 23.5262L123.384 26.0605C123.945 26.9883 124.37 27.9761 124.659 28.9949L127.562 29.5991L127.648 34.5053L124.768 35.2113C124.514 36.2389 124.124 37.2406 123.596 38.188L125.221 40.6673L121.814 44.1977L119.279 42.6606C118.351 43.2212 117.363 43.6459 116.345 43.9354L115.741 46.8388L110.835 46.9247L110.129 44.0441C109.102 43.7907 108.099 43.4007 107.152 42.873L104.673 44.4985L101.143 41.0901L102.68 38.5552C102.12 37.6274 101.694 36.6396 101.405 35.6214L98.5016 35.0172L98.4157 30.1117L101.296 29.4051C101.55 28.3774 101.94 27.3757 102.467 26.429L100.843 23.9497L104.25 20.4199L106.785 21.9563ZM109.4 28.4918C107.381 30.5831 107.44 33.9157 109.531 35.9349C111.623 37.9541 114.955 37.8954 116.974 35.8041C118.993 33.7128 118.934 30.3803 116.843 28.361C114.752 26.3418 111.419 26.4005 109.4 28.4918Z" fill="#E0E0E0"/>
<path d="M107.948 184.72C108.483 184.397 109.052 184.152 109.64 183.985L109.988 182.311L112.818 182.261L113.225 183.922C113.818 184.068 114.395 184.293 114.941 184.598L116.371 183.66L118.407 185.626L117.52 187.088C117.844 187.623 118.089 188.193 118.256 188.78L119.93 189.128L119.98 191.957L118.319 192.364C118.173 192.957 117.948 193.535 117.643 194.081L118.58 195.511L116.615 197.547L115.153 196.661C114.618 196.984 114.048 197.229 113.461 197.396L113.113 199.071L110.283 199.12L109.876 197.458C109.284 197.312 108.706 197.087 108.16 196.783L106.73 197.72L104.694 195.754L105.58 194.293C105.257 193.757 105.011 193.188 104.845 192.601L103.171 192.253L103.121 189.423L104.782 189.015C104.928 188.423 105.153 187.845 105.458 187.299L104.52 185.869L106.486 183.833L107.948 184.72ZM109.456 188.49C108.291 189.696 108.326 191.617 109.531 192.782C110.738 193.947 112.659 193.913 113.824 192.707C114.988 191.5 114.955 189.579 113.749 188.414C112.542 187.25 110.621 187.284 109.456 188.49Z" fill="#E0E0E0"/>
<path d="M46.3154 37.5579C46.6807 37.3373 47.0694 37.1698 47.4701 37.056L47.7077 35.9128L49.6391 35.8786L49.9172 37.0124C50.3217 37.1123 50.7167 37.2659 51.0889 37.4732L52.0647 36.8336L53.4545 38.1753L52.8497 39.1732C53.0702 39.5385 53.2377 39.9272 53.3515 40.3285L54.4948 40.5662L54.5289 42.4976L53.3951 42.7756C53.2952 43.1801 53.1417 43.5745 52.9344 43.9474L53.5739 44.9232L52.2322 46.313L51.2343 45.7081C50.869 45.9287 50.4803 46.0962 50.079 46.2099L49.8413 47.3532L47.91 47.3874L47.6319 46.2535C47.2274 46.1537 46.833 46.0001 46.4601 45.7928L45.4843 46.4324L44.0946 45.0907L44.6994 44.0927C44.4788 43.7274 44.3113 43.3388 44.1976 42.9381L43.0543 42.7004L43.0202 40.769L44.154 40.491C44.2538 40.0865 44.4074 39.6921 44.6147 39.3192L43.9751 38.3434L45.3169 36.9537L46.3154 37.5579ZM47.345 40.1307C46.5499 40.9542 46.5733 42.2656 47.3961 43.0607C48.2196 43.8557 49.531 43.8324 50.3261 43.0089C51.1205 42.1854 51.0978 40.874 50.2749 40.0789C49.4514 39.2845 48.1394 39.3072 47.345 40.1307Z" fill="#A0A0A0"/>
<path d="M140.655 33.5149C141.377 33.0788 142.146 32.7483 142.938 32.5227L143.408 30.2633L147.226 30.1963L147.775 32.4374C148.575 32.6345 149.354 32.9379 150.091 33.3487L152.021 32.0841L154.767 34.7359L153.572 36.7078C154.008 37.4295 154.339 38.1987 154.564 38.9906L156.823 39.4608L156.89 43.2781L154.648 43.8273C154.451 44.6267 154.148 45.4066 153.737 46.1429L155.002 48.0724L152.35 50.8191L150.377 49.6233C149.656 50.0594 148.887 50.39 148.095 50.6149L147.624 52.8743L143.807 52.9413L143.258 50.7003C142.458 50.5031 141.679 50.1997 140.942 49.7889L139.013 51.0536L136.266 48.4017L137.462 46.4298C137.026 45.7081 136.695 44.9396 136.47 44.1471L134.21 43.6768L134.143 39.8596L136.384 39.3097C136.581 38.5102 136.885 37.7304 137.296 36.9941L136.031 35.0646L138.683 32.3179L140.655 33.5149ZM142.69 38.6C141.119 40.2274 141.165 42.8199 142.792 44.391C144.42 45.9622 147.012 45.9167 148.583 44.2893C150.154 42.6619 150.109 40.0694 148.481 38.4982C146.854 36.9271 144.262 36.9726 142.69 38.6Z" fill="#EBEBEB"/>
<path d="M241.555 127.724C242.481 127.164 243.468 126.739 244.485 126.451L245.089 123.55L249.99 123.464L250.696 126.341C251.723 126.594 252.724 126.984 253.669 127.511L256.146 125.887L259.672 129.293L258.137 131.824C258.697 132.752 259.122 133.738 259.411 134.756L262.311 135.359L262.397 140.26L259.519 140.966C259.267 141.993 258.877 142.993 258.35 143.939L259.973 146.417L256.569 149.943L254.036 148.408C253.11 148.967 252.123 149.392 251.105 149.681L250.501 152.582L245.6 152.668L244.895 149.79C243.868 149.538 242.868 149.148 241.921 148.621L239.445 150.244L235.918 146.84L237.453 144.307C236.893 143.38 236.469 142.394 236.18 141.376L233.279 140.772L233.193 135.871L236.07 135.166C236.323 134.139 236.713 133.138 237.24 132.192L235.617 129.715L239.021 126.189L241.555 127.724ZM244.168 134.253C242.15 136.343 242.209 139.671 244.298 141.689C246.388 143.706 249.717 143.647 251.734 141.558C253.751 139.469 253.692 136.14 251.603 134.122C249.513 132.105 246.184 132.164 244.168 134.253Z" fill="#989898"/>
<path d="M276.188 32.371C276.188 24.198 268.802 17.7504 260.34 19.3386C255.018 20.3371 250.777 24.684 249.845 30.0181C249.262 33.3525 249.95 36.4885 251.471 39.0772H251.463L251.501 39.1271C252.01 39.9848 252.648 40.5984 253.292 41.4997L261 51.709C261.958 52.9793 263.867 52.9793 264.826 51.709L272.405 41.6678C272.405 41.6678 273.819 39.981 274.332 39.1139L274.359 39.0778H274.354C275.513 37.1073 276.188 34.8207 276.188 32.371ZM262.913 38.1501C259.687 38.1501 257.072 35.5342 257.072 32.3085C257.072 29.0821 259.687 26.4669 262.913 26.4669C266.14 26.4669 268.755 29.0821 268.755 32.3085C268.756 35.5348 266.14 38.1501 262.913 38.1501Z" fill="#E52626"/>
<path d="M42.5146 223.381C45.1349 221.628 46.591 218.291 45.9325 214.821C45.0667 210.276 40.91 207.247 36.6471 208.057C32.3862 208.866 29.6319 213.207 30.4978 217.752C31.1645 221.254 33.788 223.833 36.9056 224.473C25.3881 228.571 28.4375 241.362 28.4375 241.362L56.5216 236.028C56.5216 236.028 54.6225 222.867 42.5146 223.381Z" fill="#80DEEA" fill-opacity="0.8"/>
<path d="M76.532 277.907L70.7511 276.482C70.7511 276.482 69.5553 281.336 64.4892 280.181C61.8582 279.58 60.9229 277.53 60.6947 276.079C60.4299 274.395 61.0524 272.702 62.2602 271.498C63.6392 270.123 66.1501 269.183 69.877 270.83L73.0889 257.795L67.3724 256.387L65.491 264.022C65.491 264.022 56.9627 264.119 54.7861 272.955C52.7031 281.408 59.8004 285.239 63.0457 286.039C65.527 286.65 74.1285 288.133 76.532 277.907Z" fill="#EBEBEB"/>
<path d="M67.9541 253.676L73.7558 255.106L75.0907 249.687L69.289 248.258L67.9541 253.676Z" fill="#FF4141"/>
<path d="M36.6667 138.535H49.8591L48.6924 144.458H24.9103L25.8526 139.747L40.1668 128.529C43.7116 125.702 44.7886 124.042 44.7886 121.978C44.7886 119.914 43.218 118.523 40.1668 118.523C37.6539 118.523 35.2308 119.689 33.4808 121.798L28.5898 118.254C31.1026 114.798 35.8142 112.51 41.243 112.51C47.8841 112.51 52.2367 116.055 52.2367 120.946C52.2367 124.67 50.5316 127.811 45.0123 132.074L36.6667 138.535Z" fill="#FFE04F"/>
<path d="M81.3142 137.862H76.1539L74.8526 144.458H67.7629L69.109 137.862H52.1929L53.1352 132.971L71.6225 113.048H79.5648L62.334 131.939H70.5898L71.7565 126.061H78.5321L77.3655 131.939H82.5251L81.3142 137.862Z" fill="#FFE04F"/>
<path d="M102.045 106.676H108.596L85.5322 148.945H79.0258L102.045 106.676Z" fill="#FFE04F"/>
<path d="M131.974 113.048L131.032 117.759L114.25 144.458H106.173L122.282 118.97H112.096L111.064 124.086H104.602L106.801 113.047H131.974V113.048Z" fill="#FFE04F"/>
<path d="M21.9752 169.234L23.813 165.747C25.4853 166.808 27.4173 167.373 29.3026 167.373C31.0931 167.373 32.1295 166.807 32.1295 165.911C32.1295 163.697 24.1196 164.922 24.1196 159.739C24.1196 156.181 27.1589 153.849 32.0354 153.849C34.3674 153.849 36.4878 154.344 37.9724 155.262L36.2761 158.726C34.9805 157.901 33.3784 157.477 31.7529 157.477C29.8208 157.477 28.7844 158.183 28.7844 159.078C28.761 161.34 36.7943 160.044 36.7943 165.133C36.7943 168.667 33.6849 170.999 28.8545 170.999C26.0276 171.001 23.4591 170.247 21.9752 169.234Z" fill="#FFE04F"/>
<path d="M45.1077 157.784L44.566 160.564H51.8928L51.2096 164.051H43.8595L43.2704 167.067H51.9168L51.1629 170.671H37.9452L41.2436 154.18H54.1541L53.4235 157.785L45.1077 157.784Z" fill="#FFE04F"/>
<path d="M66.1898 165.724L68.9933 170.671H64.1162L61.6666 166.289H59.3105L58.4389 170.671H53.7741L57.0725 154.18H64.1168C68.3341 154.18 70.7604 156.135 70.7604 159.433C70.7598 162.473 69.0641 164.735 66.1898 165.724ZM63.457 157.855H61.0067L60.0177 162.685H62.7972C64.8468 162.685 66.0488 161.696 66.0488 159.881C66.0482 158.491 65.0585 157.855 63.457 157.855Z" fill="#FFE04F"/>
<path d="M91.2063 154.18L80.8636 170.671H76.2696L72.5238 154.18H77.3061L79.6622 164.899L86.4 154.18H91.2063Z" fill="#FFE04F"/>
<path d="M92.1928 154.18H96.8576L93.5592 170.671H88.8944L92.1928 154.18Z" fill="#FFE04F"/>
<path d="M97.5857 163.744C97.5857 158.02 101.802 153.85 107.928 153.85C110.968 153.85 113.441 154.957 114.619 156.959L111.25 159.645C110.472 158.396 109.271 157.712 107.621 157.712C104.418 157.712 102.297 160.187 102.297 163.438C102.297 165.652 103.805 167.137 106.326 167.137C107.81 167.137 109.177 166.571 110.354 165.228L113.11 167.938C111.249 170.175 108.823 171 105.878 171C100.813 171.001 97.5857 168.056 97.5857 163.744Z" fill="#FFE04F"/>
<path d="M121.425 157.784L120.883 160.564H128.21L127.527 164.051H120.176L119.587 167.067H128.233L127.479 170.671H114.262L117.56 154.18H130.471L129.74 157.785L121.425 157.784Z" fill="#FFE04F"/>
<path d="M39.9121 103.75H30.7045C30.7045 90.931 35.8913 77.8239 44.9352 67.7903C54.455 57.2289 66.8068 51.4126 79.7135 51.4126C106.051 51.4126 124.445 70.6381 124.445 98.1648H115.238C115.238 75.708 100.961 60.6202 79.7135 60.6202C58.8828 60.6202 39.9121 81.1773 39.9121 103.75Z" fill="#FF725E"/>
<path d="M44.9618 101.188C46.4331 101.212 47.625 101.336 47.6244 101.465C47.6231 101.594 46.4299 101.699 44.958 101.701C43.4873 101.703 42.2954 101.579 42.2966 101.425C42.2973 101.27 43.4911 101.164 44.9618 101.188Z" fill="white"/>
<path d="M51.3172 81.0053C52.549 81.8111 53.4344 82.6422 53.2954 82.8621C53.1563 83.082 52.0263 82.6365 50.7712 81.868C49.5173 81.0995 48.6312 80.2684 48.7943 80.0118C48.9561 79.7546 50.0867 80.1995 51.3172 81.0053Z" fill="white"/>
<path d="M67.2481 67.0931C67.844 68.4386 68.1398 69.6166 67.9085 69.7241C67.6772 69.8315 66.9674 68.8462 66.3228 67.5235C65.6788 66.2013 65.383 65.0233 65.663 64.8931C65.9423 64.7629 66.6527 65.7488 67.2481 67.0931Z" fill="white"/>
<path d="M88.2259 65.4391C87.8594 66.8643 87.3614 67.9722 87.1143 67.9134C86.8665 67.8546 86.9202 66.6412 87.2331 65.2034C87.5459 63.7662 88.0439 62.6583 88.3448 62.7297C88.6456 62.8012 88.5925 64.0152 88.2259 65.4391Z" fill="white"/>
<path d="M105.368 77.48C104.142 78.294 103.033 78.787 102.889 78.5803C102.746 78.3736 103.596 77.5065 104.789 76.6438C105.98 75.7818 107.091 75.2888 107.268 75.5442C107.445 75.7995 106.594 76.6666 105.368 77.48Z" fill="white"/>
<path d="M111.013 97.3375C109.541 97.3356 108.348 97.2281 108.348 97.0973C108.347 96.9665 109.539 96.8445 111.01 96.8255C112.481 96.8066 113.674 96.914 113.675 97.0657C113.677 97.2174 112.484 97.3393 111.013 97.3375Z" fill="white"/>
<path d="M77.2006 100.068C76.7595 100.068 76.3165 99.9256 75.9461 99.6374L60.4722 87.6193C59.5798 86.926 59.4181 85.6405 60.1114 84.7481C60.804 83.8563 62.0889 83.6939 62.9825 84.3872L77.0818 95.3385L96.5828 77.4346C97.4101 76.6648 98.7044 76.7122 99.4748 77.5401C100.244 78.368 100.197 79.6624 99.3693 80.4322L78.5942 99.5204C78.2036 99.8832 77.7024 100.068 77.2006 100.068Z" fill="#FF725E"/>
<path d="M87.6942 45.303H69.9508C69.674 45.303 69.4503 45.0786 69.4503 44.8024V38.3782C69.4503 38.1014 69.6747 37.8776 69.9508 37.8776H87.6942C87.9711 37.8776 88.1948 38.102 88.1948 38.3782V44.8024C88.1948 45.0786 87.9711 45.303 87.6942 45.303Z" fill="#FF725E"/>
<path d="M83.6672 41.5901H73.978V50.3736H83.6672V41.5901Z" fill="#FF725E"/>
<path d="M45.0754 65.6465L37.7973 74.6601C37.5141 75.0109 36.9997 75.0658 36.6489 74.7827L31.6751 70.7663C31.3243 70.4832 31.2694 69.9688 31.5525 69.618L38.8306 60.6044C39.1137 60.2537 39.6282 60.1987 39.9789 60.4818L44.9534 64.4982C45.3042 64.7819 45.3585 65.2958 45.0754 65.6465Z" fill="#FF725E"/>
<path d="M87.6968 45.303C87.6968 45.4067 83.7234 45.4914 78.8235 45.4914C73.9217 45.4914 69.9489 45.4073 69.9489 45.303C69.9489 45.1994 73.9217 45.1147 78.8235 45.1147C83.7234 45.1147 87.6968 45.1994 87.6968 45.303Z" fill="#263238"/>
<path d="M38.6657 73.1079C38.5665 73.221 37.2266 72.1984 35.5708 70.9534C33.9168 69.7046 32.565 68.6984 32.6465 68.5714C32.7236 68.45 34.2196 69.2647 35.8918 70.5274C37.5654 71.787 38.7611 73.0004 38.6657 73.1079Z" fill="#263238"/>
<path d="M40.2052 70.8396C40.106 70.9528 38.7661 69.9302 37.1103 68.6851C35.4563 67.4363 34.1045 66.4302 34.186 66.3031C34.2631 66.1818 35.7591 66.9964 37.4313 68.2592C39.1049 69.5187 40.3006 70.7322 40.2052 70.8396Z" fill="#263238"/>
<path d="M42.1 68.9386C42.0008 69.0517 40.6609 68.0291 39.0051 66.7841C37.3511 65.5353 35.9993 64.5291 36.0808 64.4021C36.1579 64.2808 37.6539 65.0954 39.3261 66.3581C40.9997 67.6177 42.196 68.8312 42.1 68.9386Z" fill="#263238"/>
<path d="M43.9315 66.6704C43.8323 66.7835 42.4924 65.7609 40.8366 64.5159C39.1826 63.2671 37.8308 62.2609 37.9123 62.1339C37.9894 62.0125 39.4854 62.8272 41.1576 64.0899C42.8312 65.3495 44.0275 66.5629 43.9315 66.6704Z" fill="#263238"/>
<path d="M117.45 68.8867L109.617 60.3516C109.312 60.0191 109.334 59.5028 109.666 59.1982L114.376 54.8753C114.709 54.5707 115.225 54.5928 115.53 54.9246L123.363 63.4597C123.668 63.7922 123.646 64.3085 123.314 64.6131L118.604 68.936C118.272 69.2413 117.755 69.2192 117.45 68.8867Z" fill="#FF725E"/>
<path d="M111.023 61.4411C110.925 61.3261 112.136 60.1525 113.613 58.7002C115.093 57.2497 116.289 56.0622 116.402 56.1614C116.51 56.2556 115.483 57.6137 113.986 59.08C112.492 60.5488 111.115 61.5517 111.023 61.4411Z" fill="#263238"/>
<path d="M113.038 63.3004C112.94 63.1854 114.15 62.0118 115.627 60.5595C117.108 59.109 118.304 57.9215 118.417 58.0207C118.526 58.1149 117.498 59.4731 116.001 60.9393C114.507 62.4081 113.129 63.4104 113.038 63.3004Z" fill="#263238"/>
<path d="M114.636 65.4562C114.539 65.3412 115.749 64.1676 117.226 62.7153C118.707 61.2648 119.902 60.0773 120.015 60.1765C120.124 60.2707 119.096 61.6288 117.599 63.0951C116.106 64.5639 114.728 65.5668 114.636 65.4562Z" fill="#263238"/>
<path d="M116.607 67.6038C116.51 67.4888 117.72 66.3151 119.197 64.8628C120.678 63.4124 121.873 62.2248 121.986 62.3241C122.095 62.4182 121.067 63.7764 119.57 65.2426C118.077 66.712 116.699 67.7144 116.607 67.6038Z" fill="#263238"/>
<path d="M71.943 45.2942C71.7957 45.2942 71.6763 43.6548 71.6763 41.633C71.6763 39.6106 71.7957 37.9718 71.943 37.9718C72.0903 37.9718 72.2097 39.6106 72.2097 41.633C72.2091 43.6548 72.0896 45.2942 71.943 45.2942Z" fill="#263238"/>
<path d="M75.4152 45.2942C75.268 45.2942 75.1485 43.6548 75.1485 41.633C75.1485 39.6106 75.268 37.9718 75.4152 37.9718C75.5625 37.9718 75.6819 39.6106 75.6819 41.633C75.6819 43.6548 75.5625 45.2942 75.4152 45.2942Z" fill="#263238"/>
<path d="M78.888 45.2942C78.7407 45.2942 78.6213 43.6548 78.6213 41.633C78.6213 39.6106 78.7407 37.9718 78.888 37.9718C79.0353 37.9718 79.1547 39.6106 79.1547 41.633C79.1541 43.6548 79.0346 45.2942 78.888 45.2942Z" fill="#263238"/>
<path d="M82.3602 45.2942C82.213 45.2942 82.0935 43.6548 82.0935 41.633C82.0935 39.6106 82.213 37.9718 82.3602 37.9718C82.5075 37.9718 82.6263 39.6106 82.6263 41.633C82.6263 43.6548 82.5075 45.2942 82.3602 45.2942Z" fill="#263238"/>
<path d="M85.8325 45.2942C85.6852 45.2942 85.5658 43.6548 85.5658 41.633C85.5658 39.6106 85.6852 37.9718 85.8325 37.9718C85.9797 37.9718 86.0985 39.6106 86.0985 41.633C86.0991 43.6548 85.9797 45.2942 85.8325 45.2942Z" fill="#263238"/>
<path d="M80.9534 100.594C82.7648 98.7829 82.7648 95.8461 80.9534 94.0348C79.1421 92.2235 76.2053 92.2234 74.394 94.0348C72.5827 95.8461 72.5827 98.7829 74.394 100.594C76.2054 102.406 79.1421 102.406 80.9534 100.594Z" fill="#FF725E"/>
<path d="M82.3128 97.3153C82.266 97.3172 82.2742 96.902 82.0783 96.2056C81.8843 95.5217 81.4116 94.5251 80.3795 93.7622C79.3822 92.9975 77.7472 92.5734 76.1697 93.165C74.6049 93.7079 73.2569 95.3726 73.2746 97.3147C73.2569 99.2575 74.6049 100.923 76.1697 101.466C77.7472 102.057 79.3822 101.633 80.3795 100.868C81.4116 100.106 81.8843 99.109 82.0783 98.4251C82.2742 97.728 82.266 97.3128 82.3128 97.3153C82.3292 97.3153 82.34 97.4171 82.3457 97.6136C82.3551 97.8096 82.3355 98.1022 82.2572 98.47C82.1112 99.1943 81.6644 100.279 80.583 101.135C79.5389 101.993 77.7649 102.503 76.02 101.877C74.2908 101.306 72.7778 99.4692 72.7987 97.3147C72.7784 95.1609 74.2908 93.3243 76.02 92.7536C77.7649 92.1273 79.5383 92.6379 80.583 93.4955C81.665 94.3519 82.1118 95.4364 82.2578 96.1607C82.3355 96.5279 82.3551 96.8211 82.3463 97.017C82.3406 97.213 82.3292 97.3153 82.3128 97.3153Z" fill="#263238"/>
<path d="M240.96 113.218L248.888 111.964C252.599 114.956 257.156 116.991 262.231 117.633C276.825 119.478 290.154 109.126 292.001 94.5124C293.848 79.898 283.516 66.5552 268.922 64.7098C254.328 62.865 240.999 73.2165 239.152 87.8309C238.38 93.9335 239.738 99.8104 242.638 104.725L242.627 104.714L240.96 113.218Z" fill="#FFE04F"/>
<path d="M240.96 113.218C240.96 113.218 240.987 113.041 241.053 112.68C241.123 112.306 241.222 111.768 241.355 111.061C241.63 109.61 242.033 107.476 242.559 104.7C242.565 104.661 242.603 104.636 242.641 104.643C242.655 104.646 242.668 104.653 242.677 104.663L242.688 104.673L242.577 104.759C240.829 101.809 239.065 97.5327 238.851 92.1923C238.794 90.8639 238.845 89.4785 239.01 88.0565C239.246 86.6465 239.433 85.1689 239.907 83.7122C240.747 80.7778 242.149 77.7928 244.2 75.0645C246.244 72.3368 248.932 69.872 252.147 68.0006C255.357 66.1274 259.096 64.8577 263.063 64.4728C267.026 64.0658 271.206 64.6163 275.127 66.1204C279.036 67.6303 282.746 70.0508 285.605 73.3707L286.683 74.6335C287.017 75.0721 287.321 75.5328 287.64 75.9803C288.31 76.855 288.791 77.8447 289.341 78.7826C289.619 79.2509 289.8 79.7672 290.032 80.2557C290.24 80.755 290.502 81.2322 290.663 81.7466C290.982 82.7743 291.403 83.7678 291.592 84.8188C292.593 88.9597 292.573 93.2225 291.69 97.1573C290.788 101.095 288.997 104.674 286.683 107.633C284.367 110.598 281.524 112.943 278.514 114.606C275.502 116.275 272.326 117.259 269.283 117.682C267.761 117.931 266.266 117.928 264.829 117.943C263.396 117.825 262.006 117.77 260.698 117.498C255.432 116.512 251.467 114.151 248.846 112.016L248.899 112.031C246.316 112.421 244.328 112.721 242.972 112.925C242.314 113.022 241.812 113.097 241.462 113.148C241.125 113.199 240.96 113.218 240.96 113.218C240.96 113.218 241.142 113.182 241.486 113.124C241.839 113.064 242.346 112.979 243.01 112.867C244.352 112.645 246.321 112.32 248.877 111.897C248.897 111.894 248.916 111.9 248.931 111.911C251.556 114.014 255.509 116.333 260.737 117.288C262.035 117.553 263.415 117.601 264.835 117.713C266.26 117.692 267.741 117.69 269.248 117.438C272.262 117.009 275.403 116.025 278.38 114.365C281.356 112.713 284.162 110.387 286.448 107.451C288.731 104.521 290.496 100.981 291.382 97.0884C292.251 93.1978 292.267 88.9862 291.276 84.8972C291.089 83.8588 290.672 82.8779 290.357 81.8629C290.199 81.3542 289.939 80.884 289.734 80.3904C289.503 79.9081 289.325 79.3981 289.05 78.9355C288.505 78.0096 288.032 77.0313 287.369 76.168C287.053 75.7262 286.753 75.2712 286.423 74.8376L285.358 73.5907C282.534 70.3106 278.87 67.9204 275.011 66.4263C271.139 64.9386 267.009 64.39 263.092 64.7888C259.171 65.1649 255.473 66.4143 252.297 68.261C249.114 70.1052 246.45 72.5384 244.421 75.2326C242.385 77.9281 240.987 80.8789 240.147 83.7829C239.672 85.2252 239.482 86.6882 239.243 88.0856C239.074 89.495 239.017 90.8683 239.069 92.186C239.257 97.4834 240.984 101.741 242.699 104.689C242.719 104.723 242.708 104.767 242.674 104.786C242.646 104.803 242.61 104.798 242.588 104.775L242.577 104.765L242.696 104.728C242.138 107.477 241.709 109.588 241.417 111.025C241.271 111.738 241.159 112.28 241.081 112.657C241.005 113.024 240.96 113.218 240.96 113.218Z" fill="#263238"/>
<path d="M273.754 91.9415C273.754 90.4449 274.967 89.2321 276.463 89.2321C277.96 89.2321 279.173 90.4449 279.173 91.9415C279.173 93.4374 277.96 94.6502 276.463 94.6502C274.968 94.6502 273.754 93.4374 273.754 91.9415Z" fill="#263238"/>
<path d="M262.913 91.9415C262.913 90.4449 264.126 89.2321 265.622 89.2321C267.118 89.2321 268.331 90.4449 268.331 91.9415C268.331 93.4374 267.118 94.6502 265.622 94.6502C264.127 94.6502 262.913 93.4374 262.913 91.9415Z" fill="#263238"/>
<path d="M252.1 93.2958C251.351 92.0002 251.796 90.3431 253.091 89.5955C254.387 88.8472 256.044 89.2915 256.792 90.5871C257.539 91.8827 257.096 93.5398 255.8 94.2881C254.505 95.0357 252.848 94.5914 252.1 93.2958Z" fill="#263238"/>
<path d="M62.7536 188.969C61.0864 188.177 58.2885 186.53 56.56 185.883C54.8315 185.236 52.8938 184.931 51.1432 185.516C50.1199 185.859 49.1043 186.671 49.0974 187.749L55.8933 192.732L62.7536 190.926V188.969Z" fill="#FF9A6C"/>
<path d="M55.3201 188.898C55.3201 188.898 43.1118 186.253 41.1033 185.205C39.0942 184.157 28.4336 178.822 26.6659 178.822C24.8982 178.822 23.3713 179.304 23.0496 181.072L25.3715 182.877L25.6667 183.799L29.6356 185.866L30.3625 187.199L40.4605 192.595C40.4605 192.595 51.068 197.979 52.8357 198.301C54.6034 198.622 63.4432 199.345 67.2201 202.56L82.3881 196.335C82.3881 196.335 78.0051 190.11 74.6347 188.58C71.627 187.215 66.5773 187.212 63.0413 188.658L55.3201 188.898Z" fill="#FFBF9D"/>
<path d="M65.4705 199.101C65.4705 199.101 84.7781 241.205 87.885 249.637C87.885 249.637 109.468 246.091 110.208 234.109L82.3873 196.194L65.4705 199.101Z" fill="#FFBF9D"/>
<path d="M47.5363 189.851C47.5351 189.862 47.4643 189.86 47.3297 189.846C47.1925 189.838 46.9985 189.794 46.7489 189.729C46.2534 189.591 45.5607 189.318 44.7391 188.917C43.9156 188.52 42.9638 187.996 41.9141 187.409C41.3882 187.117 40.839 186.806 40.262 186.506C39.6919 186.205 39.0637 185.955 38.4273 185.676C37.1551 185.127 35.9284 184.646 34.7744 184.347C33.6298 184.064 32.5295 183.847 31.7016 184.124C30.8686 184.411 30.4957 185.123 30.284 185.556C30.0685 186.012 29.9933 186.286 29.9617 186.276C29.9509 186.273 29.9617 186.202 29.9926 186.071C30.0198 185.938 30.0748 185.747 30.1664 185.506C30.26 185.266 30.3908 184.974 30.6152 184.674C30.8338 184.375 31.1713 184.073 31.6238 183.906C32.0738 183.73 32.6047 183.711 33.1463 183.756C33.6905 183.804 34.2586 183.908 34.8496 184.054C36.032 184.344 37.2809 184.823 38.5575 185.374C39.192 185.652 39.8253 185.907 40.4118 186.221C40.9951 186.529 41.5424 186.846 42.0645 187.145C43.1066 187.748 44.042 188.29 44.8453 188.71C45.6467 189.134 46.3147 189.434 46.7893 189.607C47.262 189.781 47.5408 189.819 47.5363 189.851Z" fill="#FF9A6C"/>
<path d="M35.8942 183.799C35.881 183.836 35.2129 183.65 34.1853 183.207C33.1697 182.747 31.7768 182.102 30.174 181.605C29.384 181.365 28.5782 181.349 27.8659 181.407C27.1549 181.466 26.559 181.749 26.2373 182.166C25.9137 182.582 25.8208 183.028 25.7582 183.324C25.7165 183.627 25.6912 183.8 25.6666 183.799C25.6457 183.799 25.6274 183.626 25.6306 183.309C25.6571 182.999 25.7121 182.516 26.0515 182.024C26.2272 181.788 26.473 181.562 26.784 181.404C27.0949 181.247 27.4539 181.153 27.8299 181.106C28.5763 181.026 29.4213 181.036 30.2631 181.288C31.9069 181.797 33.298 182.486 34.2826 182.996C35.2755 183.488 35.9126 183.751 35.8942 183.799Z" fill="#FF9A6C"/>
<path d="M66.33 187.711C66.337 187.732 66.1607 187.809 65.8346 187.928C65.5097 188.05 65.0294 188.199 64.429 188.357C63.2295 188.675 61.5306 188.987 59.6327 189.072C57.7342 189.153 56.0145 188.99 54.7916 188.777C54.1798 188.672 53.6881 188.565 53.3538 188.472C53.0189 188.382 52.8362 188.321 52.8413 188.299C52.8526 188.247 53.6035 188.396 54.8251 188.547C56.0461 188.699 57.7443 188.823 59.6188 188.743C61.4921 188.659 63.1732 188.388 64.3759 188.131C65.5786 187.874 66.3136 187.66 66.33 187.711Z" fill="#FF9A6C"/>
<path d="M246.128 162.71L218.009 156.895L211.097 151.681L173.994 158.836C173.403 159.921 167.389 168.294 167.389 168.294L152.78 173.257C146.532 174.936 140.96 178.453 136.926 183.38C133.844 187.146 130.408 192.345 127.467 199.245C120.894 214.669 111.406 232.493 111.406 232.493L105.459 222.915L80.3972 234.715C80.3972 234.715 95.0785 264.316 99.9392 268.542C105.342 273.24 117.764 273.781 126.353 265.02C131.531 259.739 146.492 238.855 149.607 233.628L154.208 255.491L158.464 280.44L151.587 297.607H251.947L247.795 281.382C247.795 281.382 251.886 239.077 253.014 231.207C255.677 212.633 246.128 162.71 246.128 162.71Z" fill="white"/>
<path d="M246.129 162.71C246.129 162.71 266.226 168.348 270.65 188.321C273.331 200.427 282.432 234.925 285.632 263.33C287.535 280.215 287.476 295.822 287.535 297.607H256.693L243.619 168.347L246.129 162.71Z" fill="white"/>
<path d="M194.583 179.863C194.59 179.867 194.56 179.938 194.498 180.071C194.421 180.228 194.327 180.42 194.212 180.653C193.963 181.162 193.602 181.909 193.171 182.867C192.283 184.771 191.232 187.579 189.541 190.719L189.454 190.878L189.314 190.759C187.231 188.983 184.965 186.847 182.627 184.539C178.491 180.432 174.863 176.607 172.179 173.895C170.855 172.564 169.773 171.477 168.994 170.693C168.635 170.336 168.345 170.048 168.122 169.827C167.925 169.626 167.826 169.516 167.833 169.508C167.841 169.5 167.956 169.593 168.167 169.778C168.401 169.988 168.704 170.261 169.081 170.6C169.864 171.326 170.986 172.389 172.343 173.731C175.071 176.403 178.727 180.203 182.858 184.305C185.192 186.611 187.444 188.75 189.506 190.534L189.279 190.575C190.98 187.476 192.073 184.679 193.008 182.793C193.464 181.843 193.851 181.106 194.128 180.61C194.259 180.385 194.366 180.2 194.454 180.049C194.533 179.922 194.576 179.859 194.583 179.863Z" fill="black"/>
<path d="M218.434 157.606C218.446 157.607 218.425 157.76 218.374 158.048C218.314 158.368 218.237 158.786 218.139 159.307C217.911 160.395 217.531 161.959 216.989 163.872C215.899 167.697 214.13 172.899 211.958 178.56C210.805 181.556 209.668 184.384 208.605 186.896L208.523 187.088L208.367 186.95C205.502 184.424 202.937 182.434 201.197 180.951C200.322 180.215 199.64 179.622 199.183 179.205C198.974 179.01 198.804 178.851 198.666 178.723C198.551 178.611 198.494 178.551 198.5 178.544C198.505 178.538 198.573 178.587 198.699 178.687C198.845 178.805 199.025 178.953 199.246 179.133C199.754 179.546 200.448 180.11 201.313 180.812C203.084 182.254 205.672 184.208 208.567 186.726L208.329 186.78C209.373 184.266 210.5 181.435 211.651 178.442C213.821 172.787 215.623 167.606 216.766 163.807C217.335 161.907 217.749 160.356 218.015 159.279C218.137 158.765 218.235 158.352 218.31 158.036C218.381 157.752 218.423 157.604 218.434 157.606Z" fill="black"/>
<path d="M153.419 252.694C153.413 252.696 153.394 252.647 153.363 252.55C153.327 252.435 153.284 252.294 153.231 252.121C153.115 251.714 152.956 251.159 152.756 250.458C152.541 249.737 152.33 248.843 152.077 247.807C151.813 246.772 151.553 245.585 151.28 244.27C150.158 239.016 149.034 231.667 148.335 223.5C147.624 215.331 147.466 207.903 147.501 202.534C147.523 199.848 147.574 197.676 147.649 196.177C147.685 195.448 147.713 194.871 147.734 194.45C147.746 194.269 147.756 194.122 147.764 194.001C147.773 193.9 147.78 193.849 147.785 193.849C147.791 193.849 147.795 193.901 147.797 194.002C147.798 194.123 147.799 194.271 147.8 194.452C147.794 194.875 147.787 195.452 147.777 196.18C147.742 197.68 147.725 199.852 147.734 202.534C147.758 207.899 147.953 215.314 148.663 223.472C149.361 231.627 150.447 238.967 151.509 244.224C151.766 245.54 152.009 246.728 152.256 247.765C152.491 248.804 152.685 249.701 152.88 250.426C153.056 251.133 153.194 251.693 153.296 252.103C153.336 252.28 153.369 252.423 153.396 252.541C153.416 252.641 153.424 252.693 153.419 252.694Z" fill="black"/>
<path d="M247.795 184.869C247.8 184.868 247.829 184.926 247.882 185.042C247.939 185.176 248.012 185.347 248.105 185.561C248.303 186.042 248.581 186.715 248.934 187.572C249.11 188.011 249.318 188.494 249.52 189.032C249.705 189.578 249.905 190.169 250.12 190.803C250.335 191.44 250.564 192.121 250.808 192.841C251.009 193.576 251.221 194.353 251.443 195.168C253.325 201.674 254.282 211.08 253.739 221.378C253.183 231.68 251.983 240.939 251.237 247.646C250.851 250.982 250.537 253.689 250.317 255.588C250.205 256.507 250.118 257.23 250.055 257.745C250.023 257.977 249.998 258.161 249.979 258.306C249.96 258.432 249.947 258.496 249.941 258.496C249.936 258.495 249.937 258.43 249.945 258.302C249.956 258.157 249.971 257.971 249.989 257.738C250.037 257.221 250.104 256.496 250.189 255.574C250.367 253.694 250.645 250.977 251.006 247.62C251.692 240.906 252.855 231.643 253.41 221.362C253.95 211.085 253.035 201.726 251.218 195.227C251.004 194.413 250.8 193.637 250.607 192.902C250.373 192.18 250.152 191.499 249.945 190.861C249.74 190.226 249.548 189.632 249.371 189.085C249.178 188.544 248.98 188.059 248.814 187.618C248.485 186.753 248.227 186.072 248.043 185.587C247.963 185.367 247.899 185.192 247.85 185.055C247.809 184.935 247.79 184.871 247.795 184.869Z" fill="black"/>
<path d="M111.55 254.022C111.459 254.023 111.354 249.203 111.314 243.259C111.274 237.313 111.316 232.494 111.407 232.493C111.498 232.493 111.604 237.311 111.643 243.257C111.683 249.201 111.642 254.022 111.55 254.022Z" fill="black"/>
<path d="M202.748 283.186C202.742 283.186 202.749 283.096 202.766 282.922C202.788 282.733 202.816 282.477 202.854 282.15C202.94 281.455 203.062 280.461 203.22 279.188C203.302 278.543 203.393 277.829 203.492 277.049C203.575 276.264 203.666 275.412 203.763 274.498C203.948 272.666 204.201 270.586 204.367 268.274C204.461 267.12 204.561 265.91 204.664 264.651C204.765 263.39 204.822 262.076 204.908 260.716C205.097 257.999 205.176 255.089 205.286 252.028C205.425 245.905 205.403 239.169 205.086 232.107C204.739 225.044 204.129 218.334 203.415 212.25C203.017 209.213 202.667 206.323 202.224 203.635C202.011 202.29 201.83 200.986 201.611 199.741C201.39 198.497 201.178 197.301 200.974 196.161C200.592 193.875 200.144 191.828 199.789 190.021C199.606 189.12 199.436 188.281 199.28 187.507C199.108 186.739 198.95 186.037 198.808 185.403C198.531 184.151 198.316 183.172 198.165 182.489C198.097 182.168 198.045 181.915 198.006 181.729C197.971 181.557 197.957 181.469 197.963 181.467C197.968 181.466 197.994 181.552 198.038 181.721C198.085 181.905 198.148 182.154 198.229 182.473C198.394 183.154 198.63 184.128 198.932 185.375C199.082 186.007 199.25 186.708 199.433 187.474C199.598 188.246 199.776 189.084 199.969 189.984C200.341 191.787 200.805 193.834 201.202 196.118C201.412 197.259 201.631 198.454 201.861 199.698C202.086 200.944 202.273 202.247 202.492 203.593C202.948 206.282 203.309 209.174 203.715 212.214C204.447 218.302 205.066 225.02 205.414 232.092C205.732 239.162 205.745 245.907 205.588 252.036C205.469 255.1 205.381 258.013 205.18 260.733C205.088 262.093 205.025 263.408 204.917 264.67C204.806 265.93 204.7 267.14 204.598 268.295C204.417 270.607 204.147 272.688 203.945 274.519C203.838 275.432 203.738 276.283 203.647 277.068C203.537 277.848 203.436 278.562 203.345 279.205C203.161 280.475 203.018 281.467 202.918 282.16C202.868 282.485 202.828 282.739 202.799 282.927C202.771 283.099 202.754 283.187 202.748 283.186Z" fill="black"/>
<path d="M216.108 214.966C216.105 214.963 216.148 214.956 216.235 214.945C216.336 214.933 216.465 214.917 216.629 214.897C216.997 214.856 217.515 214.798 218.182 214.724C219.567 214.577 221.568 214.364 224.1 214.094C229.23 213.563 236.511 212.809 245.179 211.912L245.335 211.896L245.34 212.054C245.504 218.435 245.688 225.649 245.884 233.302L245.886 233.369L245.84 233.418C245.032 234.287 244.168 235.215 243.297 236.151C240.115 239.565 237.028 242.879 234.092 246.03L234.011 246.117L233.905 246.064C228.254 243.259 223.014 240.658 218.376 238.356L218.308 238.322L218.301 238.248C217.625 231.2 217.067 225.371 216.676 221.285C216.49 219.274 216.343 217.693 216.242 216.598C216.196 216.074 216.16 215.667 216.135 215.375C216.111 215.101 216.108 214.966 216.108 214.966C216.108 214.966 216.133 215.118 216.166 215.401C216.2 215.698 216.246 216.113 216.306 216.646C216.424 217.747 216.595 219.336 216.812 221.357C217.235 225.419 217.839 231.215 218.569 238.222L218.494 238.114C223.139 240.404 228.387 242.99 234.045 245.78L233.858 245.814C236.792 242.66 239.877 239.345 243.056 235.927C243.927 234.991 244.792 234.064 245.6 233.195L245.556 233.311C245.373 225.657 245.201 218.443 245.049 212.061L245.209 212.203C236.573 213.036 229.32 213.736 224.208 214.229C221.659 214.467 219.645 214.656 218.251 214.786C217.57 214.846 217.041 214.894 216.666 214.927C216.495 214.941 216.36 214.951 216.255 214.96C216.16 214.966 216.111 214.968 216.108 214.966Z" fill="black"/>
<path d="M245.376 219.418C245.379 219.44 244.989 219.513 244.282 219.626C243.575 219.741 242.548 219.885 241.277 220.047C238.737 220.375 235.217 220.747 231.328 221.117C227.466 221.495 223.971 221.837 221.373 222.091C220.141 222.221 219.125 222.327 218.359 222.408C217.646 222.482 217.251 222.511 217.248 222.489C217.245 222.466 217.634 222.394 218.342 222.281C219.049 222.166 220.076 222.022 221.347 221.86C223.887 221.532 227.407 221.16 231.297 220.79C235.158 220.412 238.652 220.071 241.25 219.816C242.482 219.686 243.499 219.579 244.265 219.499C244.977 219.425 245.373 219.395 245.376 219.418Z" fill="black"/>
<g opacity="0.3">
<path d="M251.479 244.274C251.833 248.578 252.187 252.883 252.541 257.188C254.884 246.127 258.567 234.24 257.996 222.948C257.427 211.729 256.361 200.864 250.003 190.646C250.003 190.646 254.315 201.445 253.733 214.656C253.151 227.868 251.479 244.274 251.479 244.274Z" fill="black"/>
</g>
<path d="M107.365 220.24C106.942 219.511 106.455 218.727 105.657 218.452C104.77 218.146 103.813 218.574 102.974 218.992C95.3289 222.798 87.6842 226.604 80.0395 230.411C78.5341 231.16 76.8979 232.051 76.3278 233.633C75.5978 235.656 76.9288 237.789 78.1947 239.528C80.3088 242.432 82.8349 245.588 86.4031 245.999L106.122 232.474C108.533 232.12 110.032 229.437 109.939 227.002C109.846 224.565 108.589 222.348 107.365 220.24Z" fill="white"/>
<path d="M109.855 228.503C109.862 228.512 109.793 228.588 109.654 228.725C109.484 228.885 109.28 229.079 109.033 229.312C108.491 229.819 107.689 230.531 106.681 231.393C104.666 233.119 101.8 235.411 98.4932 237.749C95.1828 240.084 92.0633 242.018 89.7634 243.339C88.6138 244.001 87.6734 244.518 87.0142 244.859C86.7128 245.012 86.4612 245.141 86.2533 245.247C86.0776 245.332 85.9828 245.373 85.9771 245.363C85.9714 245.352 86.0561 245.293 86.2211 245.189C86.4208 245.068 86.6616 244.922 86.9517 244.747C87.633 244.34 88.5418 243.797 89.6446 243.138C91.911 241.768 95.0014 239.809 98.3036 237.479C101.602 235.148 104.483 232.891 106.532 231.214C107.522 230.396 108.338 229.721 108.95 229.214C109.211 229 109.429 228.822 109.611 228.674C109.763 228.555 109.847 228.495 109.855 228.503Z" fill="black"/>
<g opacity="0.3">
<path d="M218.136 159.053C215.437 168.02 211.656 178.153 208.467 186.838C205.746 184.529 201.942 181.477 199.221 179.168C201.562 183.814 204.381 188.22 207.619 192.292C207.994 192.764 208.502 193.281 209.094 193.168C209.654 193.06 209.942 192.45 210.144 191.917C211.803 187.529 213.462 183.142 215.121 178.755C217.444 172.613 219.692 165.435 218.136 159.053Z" fill="black"/>
</g>
<path d="M175.474 61.5567C183.667 59.1911 191.375 61.5769 198.953 65.4877C206.532 69.3992 212.641 75.9063 216.599 83.4606C220.768 91.4168 222.613 100.692 221.104 109.546C219.594 118.401 214.592 126.741 207.091 131.683C196.849 138.433 182.733 138.081 172.179 131.831C161.624 125.58 154.691 114.055 152.846 101.928C151.575 93.5738 152.609 84.7625 156.509 77.2657C160.41 69.7689 167.303 63.7169 175.474 61.5567Z" fill="#263238"/>
<path d="M202.448 87.2759C200.864 84.2177 200.934 80.5963 200.067 77.2638C198.158 69.925 191.471 64.6251 184.191 62.5034C177.419 60.5303 169.588 62.0143 162.084 65.4138C156.939 67.744 152.255 71.323 149.186 76.0636C145.113 82.3552 144.369 90.6761 147.261 97.5908L184.795 87.7133C188.703 90.2647 192.702 92.8571 197.222 94.0143C198.548 94.3543 199.958 94.5635 201.277 94.1982C202.597 93.8329 203.8 92.7718 203.968 91.413C204.152 89.9278 203.135 88.6044 202.448 87.2759Z" fill="#263238"/>
<path d="M211.403 153.829L201.713 85.6839C201.286 82.4607 199.826 79.1794 196.578 79.3292L162.46 76.0415C151.77 76.5351 146.752 90.5566 147.699 101.217C148.751 113.06 150.502 127.477 153.228 136.017C158.71 153.189 172.54 153.37 172.54 153.37C172.535 153.31 173.382 156.781 174.433 163.165L196.553 177.875L211.403 153.829Z" fill="#FFBF9D"/>
<path d="M155.934 114.175C156.074 115.373 157.205 116.244 158.459 116.12C159.71 115.997 160.614 114.929 160.475 113.73C160.334 112.532 159.204 111.661 157.953 111.784C156.698 111.906 155.794 112.977 155.934 114.175Z" fill="#263238"/>
<path d="M151.952 108.206C152.276 108.458 153.794 106.932 156.223 106.567C158.645 106.168 160.618 107.146 160.836 106.808C160.946 106.656 160.579 106.169 159.718 105.722C158.868 105.277 157.48 104.928 155.969 105.165C154.457 105.405 153.269 106.156 152.625 106.838C151.966 107.525 151.794 108.096 151.952 108.206Z" fill="#263238"/>
<path d="M178.387 110.526C178.526 111.724 179.657 112.594 180.911 112.471C182.162 112.347 183.067 111.279 182.927 110.08C182.787 108.882 181.657 108.011 180.405 108.134C179.151 108.256 178.247 109.328 178.387 110.526Z" fill="#263238"/>
<path d="M175.05 104.99C175.376 105.242 176.894 103.716 179.322 103.351C181.743 102.952 183.717 103.93 183.935 103.592C184.044 103.441 183.681 102.953 182.815 102.507C181.965 102.06 180.579 101.711 179.067 101.949C177.556 102.189 176.368 102.94 175.723 103.622C175.066 104.308 174.893 104.88 175.05 104.99Z" fill="#263238"/>
<path d="M169.83 124.372C169.821 124.233 168.271 124.202 165.777 124.263C165.147 124.293 164.541 124.26 164.372 123.853C164.158 123.426 164.315 122.719 164.506 121.951C164.86 120.361 165.229 118.695 165.619 116.948C167.139 109.836 168.139 104.025 167.852 103.967C167.565 103.908 166.1 109.626 164.58 116.738C164.22 118.49 163.875 120.16 163.548 121.758C163.421 122.498 163.139 123.36 163.598 124.241C163.836 124.679 164.343 124.946 164.757 124.992C165.172 125.052 165.523 125.006 165.832 124.977C168.313 124.735 169.842 124.512 169.83 124.372Z" fill="#263238"/>
<path d="M172.541 153.37C172.541 153.37 184.497 152.326 195.151 143.484C195.151 143.484 189.633 157.29 173.646 158.681L172.541 153.37Z" fill="#FF9A6C"/>
<path d="M171.751 130.07C172.449 128.782 173.882 127.914 175.427 127.845C176.498 127.798 177.64 128.144 178.412 128.904C179.183 129.664 179.503 130.863 179.046 131.77C178.532 132.792 177.194 133.213 175.985 133.061C174.776 132.908 173.662 132.298 172.598 131.683C172.304 131.512 172.003 131.334 171.795 131.07C171.587 130.807 171.495 130.435 171.66 130.166" fill="#FF9A6C"/>
<path d="M177.235 124.961C176.837 124.999 177.234 127.635 175.263 129.852C173.298 132.073 170.442 132.206 170.478 132.578C170.466 132.749 171.182 132.995 172.373 132.846C173.543 132.708 175.185 132.075 176.39 130.719C177.592 129.361 177.95 127.74 177.875 126.644C177.807 125.527 177.413 124.919 177.235 124.961Z" fill="#263238"/>
<path d="M174.368 97.7337C174.708 98.3574 177.085 97.6743 179.986 97.5826C182.888 97.4328 185.312 97.9157 185.6 97.266C185.725 96.9569 185.23 96.397 184.203 95.8996C183.185 95.4016 181.623 95.0192 179.883 95.09C178.144 95.1639 176.619 95.6746 175.645 96.2554C174.664 96.8368 174.216 97.436 174.368 97.7337Z" fill="#263238"/>
<path d="M151.035 97.4783C151.546 97.9643 153.132 97.1364 155.14 96.8021C157.136 96.3976 158.912 96.6055 159.216 95.9685C159.346 95.662 158.993 95.1507 158.169 94.7418C157.356 94.3335 156.064 94.0959 154.688 94.3487C153.312 94.604 152.19 95.2866 151.577 95.9584C150.952 96.634 150.806 97.2375 151.035 97.4783Z" fill="#263238"/>
<path d="M207.973 81.4388C203.371 71.6839 186.724 59.5665 176.158 61.7343L160.489 74.2213C162.294 79.8879 167.449 84.3428 173.317 85.3079C176.451 85.823 180.111 85.591 182.247 87.9421C184.428 90.3424 183.873 94.3354 185.939 96.8356C188.802 100.301 195.225 99.2612 197.54 103.114C198.552 104.798 198.433 106.985 199.474 108.65C200.861 110.868 207.238 113.065 209.606 111.951C211.973 110.838 211.419 106.627 211.933 104.313C212.811 100.36 211.982 98.4819 211.246 96.4374C209.505 91.5957 210.168 86.0935 207.973 81.4388Z" fill="#263238"/>
<path d="M202.59 115.009C202.394 113.697 203.436 110.377 204.7 109.977C208.074 108.91 214.346 108.237 215.745 117.006C217.656 128.993 205.227 128.439 205.15 128.099C205.091 127.833 203.27 119.536 202.59 115.009Z" fill="#FFBF9D"/>
<path d="M208.088 122.974C208.135 122.927 208.32 123.086 208.698 123.193C209.068 123.295 209.677 123.309 210.264 122.976C211.457 122.309 212.202 120.129 211.917 117.959C211.773 116.863 211.379 115.861 210.855 115.062C210.35 114.243 209.685 113.721 209.029 113.71C208.372 113.664 207.98 114.118 207.888 114.478C207.78 114.839 207.895 115.066 207.834 115.097C207.806 115.133 207.546 114.937 207.563 114.427C207.575 114.181 207.67 113.876 207.915 113.601C208.166 113.321 208.569 113.135 209.022 113.111C209.957 113.029 210.924 113.746 211.499 114.623C212.126 115.495 212.595 116.618 212.756 117.848C213.064 120.276 212.188 122.733 210.535 123.51C209.727 123.864 208.983 123.723 208.575 123.498C208.156 123.26 208.05 123.002 208.088 122.974Z" fill="#FF9A6C"/>
<path d="M163.577 70.1816C163.024 75.2136 156.279 82.3476 153.439 86.5378C148.019 94.5319 147.062 97.0915 148.967 113.376C145.381 108.083 142.499 102.825 142.007 96.4513C141.515 90.0776 143.133 83.453 147.03 78.385C150.926 73.317 157.188 69.9825 163.577 70.1816Z" fill="#263238"/>
<path d="M192.21 53.0393C194.757 50.2484 198.392 48.4339 202.183 47.4878C207.59 46.1385 213.519 46.5032 218.44 48.8529C223.361 51.2027 227.16 55.6002 228.173 60.6669C229.186 65.7336 227.232 71.3547 222.938 74.7207C225.67 77.4004 229.136 79.4304 232.931 80.5736C231.906 82.1081 230.014 83.0081 228.108 83.3311C226.202 83.6534 224.253 83.4733 222.335 83.2919C223.57 85.1936 225.567 86.6509 227.856 87.3202C224.775 88.1121 221.477 87.8631 218.444 87.0163C215.411 86.1694 212.61 84.7474 209.934 83.1927C200.688 77.8219 195.589 73.123 189.343 64.8337C188.504 61.3071 189.663 55.8302 192.21 53.0393Z" fill="#263238"/>
<path d="M212.14 78.3649C205.356 68.4545 196.718 63.1469 188.898 61.4993Z" fill="#263238"/>
<path d="M188.898 61.4998C188.893 61.5239 189.288 61.6427 190.005 61.8354C190.719 62.0377 191.748 62.3486 192.987 62.8195C195.466 63.7472 198.767 65.4062 201.993 67.8489C205.219 70.2929 207.765 72.9605 209.461 74.9987C210.297 76.0295 210.974 76.8644 211.41 77.4661C211.86 78.0576 212.119 78.3787 212.14 78.3648C212.16 78.3509 211.94 78.0033 211.523 77.3852C211.121 76.7569 210.472 75.8949 209.656 74.8382C208.002 72.7494 205.464 70.0293 202.208 67.5632C198.952 65.0978 195.595 63.4552 193.074 62.5818C191.814 62.1375 190.767 61.862 190.039 61.7002C189.309 61.5479 188.903 61.4752 188.898 61.4998Z" fill="#455A64"/>
<path d="M220.235 86.8172C220.232 86.8115 220.18 86.8285 220.08 86.8665C219.961 86.9145 219.818 86.972 219.641 87.0428C219.261 87.209 218.688 87.4245 217.946 87.6849C216.458 88.1873 214.242 88.7764 211.439 89.0127C208.639 89.2554 205.265 89.1132 201.617 88.3953C197.965 87.6906 194.06 86.4127 190.078 84.8017C186.097 83.1756 182.345 81.5084 179.001 79.8696C175.662 78.2207 172.754 76.5333 170.45 74.9172C168.136 73.3119 166.414 71.8097 165.279 70.7195C164.701 70.1842 164.284 69.7361 163.993 69.4397C163.859 69.3057 163.749 69.1957 163.659 69.1054C163.582 69.0314 163.54 68.9954 163.535 68.9998C163.531 69.0042 163.563 69.0478 163.632 69.13C163.715 69.2267 163.816 69.3449 163.94 69.4883C164.214 69.8006 164.616 70.2657 165.182 70.8187C166.291 71.9437 167.997 73.4832 170.304 75.1239C172.602 76.7753 175.512 78.4943 178.854 80.1647C182.203 81.8269 185.951 83.5029 189.944 85.1341C193.94 86.7502 197.872 88.0268 201.555 88.7195C205.235 89.4254 208.642 89.5423 211.461 89.2655C214.286 88.9944 216.511 88.3624 217.994 87.8163C218.733 87.5345 219.3 87.2975 219.672 87.1091C219.842 87.0251 219.981 86.9562 220.096 86.8999C220.19 86.8507 220.237 86.8228 220.235 86.8172Z" fill="#FFE04F"/>
<path d="M184.423 146.333L183.27 144.083C183.35 144.042 191.285 139.966 194.338 137.401C201.53 131.359 208.145 121.707 208.211 121.61L210.3 123.033C210.022 123.44 203.427 133.067 195.964 139.336C192.693 142.086 184.758 146.161 184.423 146.333Z" fill="#455A64"/>
<path d="M190.331 139.352C190.331 139.352 179.476 144.188 179.476 145.263C179.476 146.338 181.196 148.488 182.485 148.38C183.775 148.273 187.503 146.176 188.148 145.316C188.793 144.456 190.006 142.247 191.296 141.173L190.331 139.352Z" fill="black"/>
<path d="M210.219 106.826L207.694 106.707C207.699 106.601 208.138 95.9811 203.988 85.2934C198.503 71.1663 187.96 63.5797 172.652 62.743C171.394 62.6697 169.999 62.7746 168.49 63.0274L169.596 61.9839C170.133 61.4783 170.756 61.0732 171.435 60.7876C172.366 60.397 173.381 60.244 174.387 60.3313C193.717 62.0042 202.446 74.2896 206.374 84.4528C210.693 95.6316 210.24 106.374 210.219 106.826Z" fill="#455A64"/>
<path d="M208.957 129.791C213.381 129.791 216.967 124.636 216.967 118.278C216.967 111.92 213.381 106.766 208.957 106.766C204.533 106.766 200.947 111.92 200.947 118.278C200.947 124.636 204.533 129.791 208.957 129.791Z" fill="#455A64"/>
<path d="M216.967 118.278C216.961 118.278 216.953 118.224 216.945 118.119C216.936 117.994 216.925 117.841 216.912 117.652C216.9 117.241 216.831 116.638 216.723 115.868C216.456 114.355 215.93 112.071 214.252 109.847C213.846 109.287 213.323 108.781 212.748 108.3C212.145 107.862 211.484 107.422 210.708 107.195C209.944 106.963 209.105 106.841 208.256 106.962C207.411 107.082 206.573 107.396 205.807 107.877C204.284 108.862 203.079 110.453 202.306 112.276C201.505 114.098 201.134 116.167 201.112 118.277C201.134 120.387 201.505 122.457 202.306 124.28C203.078 126.104 204.284 127.695 205.807 128.68C206.573 129.161 207.411 129.475 208.256 129.595C209.106 129.716 209.945 129.594 210.709 129.361C211.485 129.134 212.144 128.695 212.749 128.256C213.323 127.775 213.846 127.268 214.253 126.708C215.931 124.484 216.456 122.201 216.723 120.689C216.831 119.918 216.9 119.315 216.912 118.904C216.926 118.716 216.936 118.562 216.945 118.437C216.953 118.333 216.961 118.278 216.967 118.278C216.972 118.278 216.976 118.332 216.978 118.437C216.978 118.563 216.978 118.717 216.978 118.906C216.988 119.32 216.939 119.927 216.85 120.707C216.618 122.238 216.128 124.556 214.437 126.849C214.027 127.426 213.496 127.953 212.906 128.455C212.287 128.914 211.604 129.375 210.793 129.62C209.995 129.87 209.113 130.004 208.219 129.882C207.329 129.762 206.446 129.435 205.644 128.936C204.049 127.914 202.805 126.274 202.009 124.408C201.185 122.541 200.805 120.429 200.782 118.277C200.805 116.126 201.186 114.014 202.01 112.148C202.806 110.283 204.049 108.643 205.644 107.621C206.446 107.122 207.328 106.795 208.219 106.675C209.113 106.553 209.994 106.687 210.793 106.936C211.603 107.181 212.285 107.642 212.905 108.101C213.495 108.603 214.027 109.129 214.437 109.706C216.127 111.999 216.618 114.318 216.849 115.849C216.939 116.629 216.987 117.236 216.977 117.649C216.977 117.839 216.977 117.993 216.977 118.118C216.976 118.224 216.972 118.278 216.967 118.278Z" fill="#263238"/>
<path d="M210.19 124.96C213.006 124.96 215.289 121.679 215.289 117.631C215.289 113.583 213.006 110.302 210.19 110.302C207.374 110.302 205.091 113.583 205.091 117.631C205.091 121.679 207.374 124.96 210.19 124.96Z" fill="#455A64"/>
<path d="M215.288 117.631C215.251 117.632 215.264 117.078 215.11 116.1C214.934 115.14 214.592 113.692 213.527 112.29C212.998 111.602 212.256 110.937 211.289 110.623C210.809 110.479 210.282 110.403 209.75 110.479C209.22 110.556 208.695 110.754 208.214 111.056C207.257 111.677 206.497 112.681 206.01 113.834C205.505 114.986 205.27 116.296 205.255 117.63C205.27 118.966 205.504 120.276 206.009 121.428C206.496 122.581 207.257 123.586 208.214 124.206C208.695 124.508 209.22 124.706 209.75 124.783C210.282 124.859 210.809 124.783 211.289 124.639C212.256 124.325 212.997 123.659 213.527 122.971C214.592 121.568 214.934 120.121 215.11 119.162C215.264 118.184 215.252 117.63 215.288 117.631C215.3 117.631 215.306 117.769 215.307 118.032C215.317 118.295 215.29 118.683 215.236 119.181C215.095 120.158 214.79 121.64 213.711 123.113C213.175 123.834 212.41 124.548 211.374 124.898C210.859 125.06 210.29 125.147 209.713 125.07C209.138 124.993 208.568 124.783 208.051 124.462C207.022 123.804 206.224 122.751 205.713 121.556C205.184 120.359 204.94 119.007 204.926 117.63C204.941 116.253 205.185 114.901 205.713 113.705C206.225 112.509 207.023 111.457 208.051 110.8C208.568 110.479 209.138 110.269 209.713 110.192C210.29 110.114 210.859 110.201 211.374 110.364C212.41 110.714 213.174 111.427 213.711 112.148C214.79 113.62 215.095 115.103 215.236 116.081C215.29 116.579 215.317 116.966 215.307 117.23C215.306 117.494 215.3 117.631 215.288 117.631Z" fill="#263238"/>
<path d="M210.542 122.903C212.568 122.903 214.21 120.543 214.21 117.631C214.21 114.719 212.568 112.359 210.542 112.359C208.516 112.359 206.874 114.719 206.874 117.631C206.874 120.543 208.516 122.903 210.542 122.903Z" fill="#455A64"/>
<path d="M214.209 117.631C214.176 117.632 214.179 117.233 214.063 116.533C213.931 115.845 213.681 114.809 212.916 113.809C212.536 113.32 212.007 112.847 211.32 112.627C210.64 112.397 209.821 112.495 209.143 112.938C207.771 113.844 207.041 115.739 207.038 117.631C207.041 119.523 207.771 121.419 209.143 122.326C209.821 122.769 210.64 122.866 211.32 122.636C212.007 122.416 212.536 121.944 212.916 121.454C213.681 120.454 213.931 119.418 214.063 118.731C214.18 118.029 214.176 117.63 214.209 117.631C214.221 117.631 214.228 117.73 214.232 117.92C214.242 118.109 214.226 118.389 214.19 118.748C214.094 119.454 213.878 120.526 213.101 121.594C212.713 122.118 212.16 122.638 211.405 122.895C211.03 123.014 210.615 123.078 210.193 123.023C209.773 122.967 209.357 122.814 208.98 122.581C208.23 122.103 207.65 121.339 207.279 120.472C206.896 119.606 206.719 118.627 206.708 117.63C206.719 116.634 206.896 115.655 207.279 114.789C207.65 113.923 208.23 113.159 208.98 112.681C209.357 112.448 209.773 112.295 210.193 112.239C210.615 112.184 211.03 112.248 211.405 112.367C212.16 112.624 212.713 113.144 213.1 113.668C213.878 114.736 214.092 115.808 214.189 116.514C214.225 116.873 214.242 117.153 214.231 117.343C214.228 117.532 214.221 117.631 214.209 117.631Z" fill="#263238"/>
</svg>
